<?xml version="1.0" encoding="UTF-8" standalone="no"?>
<svg width="637px" height="145px" viewBox="0 0 637 145" version="1.1" xmlns="http://www.w3.org/2000/svg" xmlns:xlink="http://www.w3.org/1999/xlink" xmlns:sketch="http://www.bohemiancoding.com/sketch/ns">
    <!-- Generator: Sketch 3.2.2 (9983) - http://www.bohemiancoding.com/sketch -->
    <title>seattle-logo</title>
    <desc>Created with Sketch.</desc>
    <defs></defs>
    <g id="Logos-(For-Export)" stroke="none" stroke-width="1" fill="none" fill-rule="evenodd" sketch:type="MSPage">
        <g id="seattle-logo" sketch:type="MSArtboardGroup" transform="translate(-132.000000, -10.000000)" fill="#FFFFFF">
            <path d="M243.468,74 L250.068,74 L250.068,45.928 L255.876,45.928 C265.556,45.928 271.188,40.912 271.188,31.32 L271.188,25.424 C271.188,15.392 265.556,11.08 255.876,11.08 L243.468,11.08 L243.468,74 Z M250.068,40.736 L250.068,16.272 L256.228,16.272 C261.684,16.272 264.588,18.56 264.588,25.424 L264.588,31.32 C264.588,37.832 261.772,40.736 256.228,40.736 L250.068,40.736 Z M305.636,11.08 L305.636,58.16 C305.636,66.08 302.556,69.248 297.012,69.248 C291.292,69.248 288.388,66.08 288.388,58.688 L288.388,11.08 L281.788,11.08 L281.788,58.864 C281.788,69.688 287.772,74.792 297.012,74.792 C306.78,74.792 312.236,69.424 312.236,58.6 L312.236,11.08 L305.636,11.08 Z M341.756,47.776 L350.028,47.776 L350.028,57.72 C350.028,65.464 347.476,69.248 341.14,69.248 C334.364,69.248 331.196,64.672 331.196,56.576 L331.196,28.416 C331.196,20.056 334.1,15.744 340.788,15.744 C345.892,15.744 349.588,18.472 349.588,25.952 L349.588,26.568 L355.836,26.568 L355.836,25.864 C355.836,14.336 349.236,10.288 340.7,10.288 C330.668,10.288 324.42,16.624 324.42,28.416 L324.42,56.664 C324.42,68.192 330.756,74.792 341.14,74.792 C350.908,74.792 356.628,69.512 356.628,57.896 L356.628,42.408 L341.756,42.408 L341.756,47.776 Z M368.636,74 L393.892,74 L393.892,68.72 L375.236,68.72 L375.236,42.936 L389.492,42.936 L389.492,37.656 L375.236,37.656 L375.236,16.36 L392.748,16.36 L392.748,11.08 L368.636,11.08 L368.636,74 Z M412.676,74 L419.188,74 L419.276,16.36 L430.188,16.36 L430.188,11.08 L401.852,11.08 L401.852,16.36 L412.676,16.36 L412.676,74 Z M468.9,74.792 C477.172,74.792 482.716,69.952 482.716,59.568 L482.716,58.248 C482.716,48.04 478.58,44.08 470.396,38.008 C463.708,32.992 461.332,30.264 461.332,24.016 L461.332,23.664 C461.332,18.384 463.884,15.744 468.372,15.744 C472.772,15.744 475.588,17.944 475.588,24.28 L475.588,26.48 L481.748,26.48 L481.748,24.28 C481.748,14.864 476.82,10.288 468.372,10.288 C460.276,10.288 455.084,15.304 455.084,24.104 L455.084,24.368 C455.084,33.256 459.22,37.656 466.436,43.112 C473.3,48.392 476.38,51.208 476.38,58.6 L476.38,59.832 C476.38,66.08 473.652,69.336 468.9,69.336 C463.092,69.336 460.628,66.168 460.628,59.04 L460.628,56.928 L454.292,56.928 L454.292,59.04 C454.292,69.16 459.484,74.792 468.9,74.792 L468.9,74.792 Z M510.124,74.792 C520.156,74.792 526.58,68.192 526.58,56.488 L526.58,28.328 C526.58,16.8 520.156,10.288 510.124,10.288 C500.092,10.288 493.668,16.8 493.668,28.416 L493.668,56.664 C493.668,68.192 500.092,74.792 510.124,74.792 L510.124,74.792 Z M510.124,69.248 C503.436,69.248 500.356,64.76 500.356,56.576 L500.356,28.416 C500.356,20.232 503.524,15.744 510.124,15.744 C516.636,15.744 519.804,20.672 519.804,28.416 L519.804,56.488 C519.804,64.408 516.636,69.248 510.124,69.248 L510.124,69.248 Z M562.7,11.08 L562.7,58.16 C562.7,66.08 559.62,69.248 554.076,69.248 C548.356,69.248 545.452,66.08 545.452,58.688 L545.452,11.08 L538.852,11.08 L538.852,58.864 C538.852,69.688 544.836,74.792 554.076,74.792 C563.844,74.792 569.3,69.424 569.3,58.6 L569.3,11.08 L562.7,11.08 Z M582.188,74 L588.172,74 L588.172,23.488 L605.156,74 L612.02,74 L612.02,11.08 L606.124,11.08 L606.124,57.808 L590.196,11.08 L582.188,11.08 L582.188,74 Z M624.996,11.08 L624.996,74 L637.492,74 C649.724,74 656.06,67.928 656.06,55.432 L656.06,29.648 C656.06,16.8 649.46,11.08 637.404,11.08 L624.996,11.08 Z M637.14,16.272 C646.116,16.272 649.284,20.76 649.284,29.56 L649.284,55.344 C649.284,64.496 646.204,68.72 637.14,68.72 L631.596,68.72 L631.596,16.272 L637.14,16.272 Z M132.048,154 L149.736,154 C161.528,154 167.776,149.776 167.776,138.16 L167.776,134.112 C167.776,126.104 163.64,122.232 156.952,120.912 C162.672,119.592 166.368,116.16 166.368,109.56 L166.368,105.16 C166.368,95.568 160.824,91.08 149.384,91.08 L132.048,91.08 L132.048,154 Z M145.336,144.408 L145.336,125.576 L148.24,125.576 C152.552,125.576 154.312,126.896 154.312,132.616 L154.312,137.104 C154.312,142.384 152.552,144.408 148.504,144.408 L145.336,144.408 Z M145.336,116.512 L145.336,100.672 L148.152,100.672 C151.672,100.672 153.52,101.64 153.52,106.392 L153.52,110.352 C153.52,115.016 152.024,116.512 148.152,116.512 L145.336,116.512 Z M199.936,91.08 L199.936,136.84 C199.936,142.12 198.528,143.968 195.184,143.968 C191.576,143.968 190.344,142.12 190.344,136.928 L190.344,91.08 L176.792,91.08 L176.792,137.192 C176.792,149.424 183.392,154.968 195.096,154.968 C206.712,154.968 213.576,149.512 213.576,137.28 L213.576,91.08 L199.936,91.08 Z M239.752,154.968 C250.928,154.968 257.176,149.248 257.176,137.808 L257.176,136.576 C257.176,124.256 250.752,120.472 243.272,115.72 C237.816,112.024 235.88,110.44 235.88,105.952 L235.88,105.6 C235.88,102.08 237.112,100.672 239.664,100.672 C242.04,100.672 243.712,101.816 243.712,106.304 L243.712,108.328 L256.472,108.328 L256.472,106.48 C256.384,95.392 250.312,90.2 239.664,90.2 C228.84,90.2 222.68,96.008 222.68,106.48 L222.68,106.832 C222.68,117.216 226.992,121.88 235.176,127.072 C240.808,130.768 243.888,132.528 243.888,138.16 L243.888,138.864 C243.888,142.912 242.568,144.672 239.752,144.672 C236.496,144.672 235.176,143 235.176,137.896 L235.176,135.432 L222.064,135.432 L222.064,137.456 C222.152,150.04 229.016,154.968 239.752,154.968 L239.752,154.968 Z M266.72,154 L280.36,154 L280.36,91.08 L266.72,91.08 L266.72,154 Z M291.048,154 L302.752,154 L302.752,114.928 L315.248,154 L328.096,154 L328.096,91.08 L316.304,91.08 L316.304,124.696 L305.656,91.08 L291.048,91.08 L291.048,154 Z M338.52,154 L367.912,154 L367.912,143.352 L352.072,143.352 L352.072,125.928 L363.864,125.928 L363.864,115.808 L352.072,115.808 L352.072,101.728 L367.032,101.728 L367.032,91.08 L338.52,91.08 L338.52,154 Z M393.208,154.968 C404.384,154.968 410.632,149.248 410.632,137.808 L410.632,136.576 C410.632,124.256 404.208,120.472 396.728,115.72 C391.272,112.024 389.336,110.44 389.336,105.952 L389.336,105.6 C389.336,102.08 390.568,100.672 393.12,100.672 C395.496,100.672 397.168,101.816 397.168,106.304 L397.168,108.328 L409.928,108.328 L409.928,106.48 C409.84,95.392 403.768,90.2 393.12,90.2 C382.296,90.2 376.136,96.008 376.136,106.48 L376.136,106.832 C376.136,117.216 380.448,121.88 388.632,127.072 C394.264,130.768 397.344,132.528 397.344,138.16 L397.344,138.864 C397.344,142.912 396.024,144.672 393.208,144.672 C389.952,144.672 388.632,143 388.632,137.896 L388.632,135.432 L375.52,135.432 L375.52,137.456 C375.608,150.04 382.472,154.968 393.208,154.968 L393.208,154.968 Z M435.928,154.968 C447.104,154.968 453.352,149.248 453.352,137.808 L453.352,136.576 C453.352,124.256 446.928,120.472 439.448,115.72 C433.992,112.024 432.056,110.44 432.056,105.952 L432.056,105.6 C432.056,102.08 433.288,100.672 435.84,100.672 C438.216,100.672 439.888,101.816 439.888,106.304 L439.888,108.328 L452.648,108.328 L452.648,106.48 C452.56,95.392 446.488,90.2 435.84,90.2 C425.016,90.2 418.856,96.008 418.856,106.48 L418.856,106.832 C418.856,117.216 423.168,121.88 431.352,127.072 C436.984,130.768 440.064,132.528 440.064,138.16 L440.064,138.864 C440.064,142.912 438.744,144.672 435.928,144.672 C432.672,144.672 431.352,143 431.352,137.896 L431.352,135.432 L418.24,135.432 L418.24,137.456 C418.328,150.04 425.192,154.968 435.928,154.968 L435.928,154.968 Z M482.208,154.528 C492.592,154.528 498.048,148.72 498.048,137.896 L498.048,91.08 L484.408,91.08 L484.408,137.28 C484.408,141.68 482.472,143.176 479.04,143.176 C477.192,143.176 475.96,142.912 474.904,142.648 L474.904,153.208 C476.488,153.912 478.6,154.528 482.208,154.528 L482.208,154.528 Z M526.776,154.968 C538.48,154.968 546.048,148.896 546.048,135.784 L546.048,109.032 C546.048,95.832 538.216,90.2 526.776,90.2 C515.688,90.2 507.592,96.184 507.592,109.12 L507.592,136.136 C507.592,149.072 515.072,154.968 526.776,154.968 L526.776,154.968 Z M526.776,144.056 C523.08,144.056 521.408,141.768 521.408,136.048 L521.408,109.032 C521.408,103.4 523.168,101.112 526.776,101.112 C530.472,101.112 532.232,103.576 532.232,109.032 L532.232,135.96 C532.232,141.68 530.472,144.056 526.776,144.056 L526.776,144.056 Z M579,91.08 L579,136.84 C579,142.12 577.592,143.968 574.248,143.968 C570.64,143.968 569.408,142.12 569.408,136.928 L569.408,91.08 L555.856,91.08 L555.856,137.192 C555.856,149.424 562.456,154.968 574.16,154.968 C585.776,154.968 592.64,149.512 592.64,137.28 L592.64,91.08 L579,91.08 Z M602.888,154 L616.44,154 L616.44,127.776 L618.904,127.776 L625.856,154 L639.936,154 L631.664,125.664 C635.8,123.64 638.176,120.296 638.176,113.168 L638.176,106.744 C638.176,96.272 633.248,91.08 620.048,91.08 L602.888,91.08 L602.888,154 Z M616.44,119.064 L616.44,101.464 L619.608,101.464 C623.392,101.464 624.976,102.96 624.976,107.184 L624.976,112.992 C624.976,117.48 623.304,119.064 619.608,119.064 L616.44,119.064 Z M648.16,154 L659.864,154 L659.864,114.928 L672.36,154 L685.208,154 L685.208,91.08 L673.416,91.08 L673.416,124.696 L662.768,91.08 L648.16,91.08 L648.16,154 Z M718.776,154 L732.504,154 L722.472,91.08 L703.024,91.08 L693.08,154 L705.488,154 L707.16,141.152 L717.016,141.152 L718.776,154 Z M712.088,103.136 L715.784,131.736 L708.392,131.736 L712.088,103.136 Z M740.376,154 L768.096,154 L768.096,143.176 L753.928,143.176 L753.928,91.08 L740.376,91.08 L740.376,154 Z" id="PUGET-SOUND" sketch:type="MSShapeGroup"></path>
        </g>
    </g>
</svg>